<svg width="70" height="70" viewBox="0 0 70 70" fill="none" xmlns="http://www.w3.org/2000/svg">
<path d="M52.3634 25.7195C44.7717 22.2163 33.8494 19.9907 23.5772 20.8191C24.0873 17.4257 25.3676 15.0603 27.448 14.5613C30.3186 13.8726 33.4493 15.7589 36.4299 19.1823C38.3804 19.4318 40.7009 19.8809 42.3212 20.2502C36.88 10.0401 29.5785 4.32131 24.0273 6.43717C19.8064 8.04403 17.6459 13.8427 17.9059 21.6374C12.4048 22.8052 8.11383 24.8811 5.36324 27.8653C5.22321 28.025 4.91314 28.4342 5.02316 28.6238C5.11318 28.7735 5.38324 28.6038 5.51327 28.524C8.69396 26.2983 12.7748 25.1007 18.086 24.3422C18.8461 32.6559 22.3669 43.2053 28.2282 51.6687C25.0275 52.9263 22.3369 53.0061 20.8666 51.4492C18.8361 49.3133 18.9062 45.6605 20.3865 41.3689C19.6263 39.5524 18.8561 37.3268 18.376 35.7499C12.2147 45.5607 10.8944 54.7327 15.5054 58.4754C19.0162 61.3199 25.1275 60.2919 31.7589 56.1699C35.5197 60.3418 39.4706 63.0066 43.4315 63.8848C43.6415 63.9248 44.1516 63.9946 44.2616 63.805C44.3517 63.6553 44.0616 63.4956 43.9316 63.4357C40.4108 61.7989 37.3301 58.8746 34.0194 54.6629C40.8609 49.8523 48.2525 41.5286 52.6634 32.2367C55.354 34.3825 56.7643 36.6581 56.1542 38.7141C55.314 41.5385 52.1133 43.3051 47.6424 44.1634C46.4421 45.7303 44.9018 47.5069 43.7715 48.7145C55.354 49.1137 63.9759 45.6705 64.9161 39.8219C65.6362 35.3706 61.6754 30.5999 54.7839 26.9271C56.5243 21.5875 56.8644 16.8468 55.6441 12.9844C55.5741 12.7848 55.384 12.3057 55.154 12.3057C54.9839 12.3057 54.9839 12.6351 54.994 12.7748C55.354 16.6272 54.3638 20.7592 52.3634 25.7195ZM31.0288 50.3413C26.1277 42.4967 23.3071 33.2547 23.3171 23.913C32.5791 23.6036 42.0111 25.7794 50.1129 30.4702C45.752 38.6242 39.1505 45.6904 31.0288 50.3413V50.3413Z" fill="white"/>
</svg>
