<svg width="70" height="70" viewBox="0 0 70 70" fill="none" xmlns="http://www.w3.org/2000/svg">
<path d="M44.8488 52.1313H23.4255V57.8442L34.1372 62.8429L44.8488 57.8442V52.1313Z" fill="#2B2B2B"/>
<rect x="14.8562" y="10.7129" width="38.5619" height="39.9902" fill="#2B2B2B"/>
<path d="M28.8244 45.7328L28.7959 45.6471L28.7387 45.5615L28.7102 45.4758L28.6816 45.4186L28.653 45.3329L28.6245 45.2187L28.5959 45.1615L28.5388 45.0759L28.5102 44.9902L28.4817 44.9045L28.4531 44.8188L28.4245 44.7331L28.396 44.6474L28.3388 44.5617L28.3103 44.476L28.2817 44.3903L28.2531 44.3046L28.2246 44.2189L28.196 44.1332L28.1389 44.0475L28.1103 43.9618L28.0818 43.8761L28.0532 43.9618L28.0246 44.0475L27.9961 44.1332L27.9389 44.2189L27.9104 44.3046L27.8818 44.3903L27.8532 44.476L27.7961 44.5617V44.6474L27.739 44.7331L27.7104 44.8188L27.6819 44.9045L27.6533 44.9902L27.6247 45.0759L27.5962 45.1615L27.539 45.2187L27.5105 45.3329L27.4819 45.4186L27.4533 45.4758L27.4248 45.5615L27.3676 45.6757L27.3391 45.7328L27.3105 45.8185H28.853L28.8244 45.7328ZM28.8244 45.7328L28.7959 45.6471L28.7387 45.5615L28.7102 45.4758L28.6816 45.4186L28.653 45.3329L28.6245 45.2187L28.5959 45.1615L28.5388 45.0759L28.5102 44.9902L28.4817 44.9045L28.4531 44.8188L28.4245 44.7331L28.396 44.6474L28.3388 44.5617L28.3103 44.476L28.2817 44.3903L28.2531 44.3046L28.2246 44.2189L28.196 44.1332L28.1389 44.0475L28.1103 43.9618L28.0818 43.8761L28.0532 43.9618L28.0246 44.0475L27.9961 44.1332L27.9389 44.2189L27.9104 44.3046L27.8818 44.3903L27.8532 44.476L27.7961 44.5617V44.6474L27.739 44.7331L27.7104 44.8188L27.6819 44.9045L27.6533 44.9902L27.6247 45.0759L27.5962 45.1615L27.539 45.2187L27.5105 45.3329L27.4819 45.4186L27.4533 45.4758L27.4248 45.5615L27.3676 45.6757L27.3391 45.7328L27.3105 45.8185H28.853L28.8244 45.7328ZM30.4526 15.9116H29.3386V23.624H30.4526C31.0525 23.624 31.5381 23.1384 31.5381 22.51V17.0256C31.5381 16.3972 31.0525 15.9116 30.4526 15.9116ZM30.4526 15.9116H29.3386V23.624H30.4526C31.0525 23.624 31.5381 23.1384 31.5381 22.51V17.0256C31.5381 16.3972 31.0525 15.9116 30.4526 15.9116ZM12 5V54.2165L34.8515 64.8995L57.703 54.2165V5H12ZM37.051 12.6267H40.3645V33.5073H37.051V12.6267ZM34.9087 42.7621L34.9658 42.8478L35.0229 42.905L35.0515 42.9907L35.1086 43.0763L35.1657 43.1335L35.1943 43.2192L35.2514 43.3049L35.3086 43.3906L35.3371 43.4477L35.3942 43.5334L35.4514 43.6191L35.4799 43.6762L35.5371 43.7619L35.5656 43.8476L35.6228 43.9047L35.6799 43.9904L35.737 44.0761L35.7656 44.1332L35.8227 44.2189L35.8798 44.3046L35.9084 44.3903L35.9655 44.4474L35.9941 44.3903L36.0512 44.3046L36.1084 44.2189L36.1655 44.1332L36.194 44.0761L36.2512 43.9904L36.3083 43.9047L36.3369 43.8476L36.394 43.7619L36.4226 43.6762L36.4797 43.6191L36.5368 43.5334L36.5654 43.4477L36.6225 43.3906L36.6796 43.3049L36.7368 43.2192L36.7653 43.1335L36.8225 43.0763L36.851 42.9907L36.9082 42.905L36.9653 42.8478L36.9939 42.7621L37.051 42.6764L37.1081 42.5908L37.1652 42.5336L37.1938 42.4479L37.2509 42.3622L37.3081 42.3051L37.3366 42.2194L37.3938 42.1623L37.4223 42.0766L37.4794 41.9909L37.5366 41.9052L37.5937 41.8481H39.4504V48.475H37.6794V44.5617L37.6508 44.6188L37.5937 44.7045L37.5366 44.7902L37.4794 44.8473L37.4509 44.933L37.3938 45.0187L37.3366 45.0759L37.3081 45.1615L37.2509 45.2472L37.1938 45.3044L37.1367 45.3901L37.1081 45.4758L37.051 45.5329L36.9939 45.6186L36.9653 45.7043L36.9082 45.7614L36.851 45.8471L36.7939 45.9328L36.7653 45.9899L36.7082 46.0756L36.6511 46.1613L36.5939 46.2184L36.5654 46.3041L36.5083 46.3898L36.4511 46.4469L36.394 46.5326L36.3654 46.5898L36.3083 46.6755L36.2512 46.7612L36.194 46.8183L36.1655 46.904L36.1084 46.9897L36.0512 47.0468L35.9941 47.1325L35.9655 47.2182H35.937L35.8798 47.1325L35.8227 47.0468L35.7656 46.9897L35.737 46.904L35.6799 46.8183L35.6228 46.7612L35.5656 46.6755L35.5371 46.5898L35.4799 46.5041L35.4228 46.4469L35.3657 46.3613L35.3371 46.2756L35.28 46.1899L35.2229 46.1327L35.1657 46.047L35.1372 45.9614L35.08 45.8757L35.0229 45.8185L34.9658 45.7328L34.9087 45.6471L34.8801 45.59L34.823 45.5043L34.7658 45.4186L34.7087 45.3615L34.6801 45.2758L34.623 45.1901L34.5659 45.1044L34.5087 45.0473L34.4802 44.9616L34.4231 44.8759L34.3659 44.7902L34.3088 44.7331L34.2802 44.6474L34.2231 44.5617V48.475H32.4807V41.8481H34.3659L34.3945 41.9052L34.4516 41.9909L34.5087 42.0766L34.5373 42.1623L34.5944 42.2194L34.623 42.3051L34.6801 42.3622L34.7373 42.4479L34.7658 42.5336L34.823 42.5908L34.8801 42.6764L34.9087 42.7621ZM26.0537 12.6267H30.8525C33.5376 12.6267 34.8515 13.9407 34.8515 16.6257V23.1384C34.8515 25.6521 33.6233 26.9089 31.1096 26.9089H29.3672V33.5073H26.0537V12.6267ZM23.7685 47.5895L23.7114 47.6467L23.6257 47.6752L23.5686 47.7323L23.4829 47.7895L23.4258 47.8466L23.3401 47.8752L23.2829 47.9323L23.1972 47.9894L23.1116 48.018L23.0259 48.0751L22.9687 48.1037L22.883 48.1608L22.7973 48.1894L22.7117 48.2465L22.626 48.2751L22.5403 48.3036L22.4546 48.3322L22.3689 48.3608L22.2832 48.3893L22.1975 48.4179L22.1118 48.4465L22.0261 48.475L21.9404 48.5036L21.8547 48.5321H21.769L21.6833 48.5607H21.4834L21.3977 48.5893H21.1977L21.112 48.6178H20.7121L20.6264 48.5893H20.4265L20.3408 48.5607H20.2551L20.1694 48.5321H20.0552L19.998 48.5036H19.8838L19.7981 48.475L19.7124 48.4465L19.6267 48.4179L19.5696 48.3893L19.4839 48.3608L19.3982 48.3322L19.3125 48.2751L19.2268 48.2465L19.1411 48.2179L19.0554 48.1608L18.9983 48.1037L18.9126 48.0751L18.8269 48.018L18.7698 47.9894L18.6841 47.9323L18.6269 47.8752L18.5412 47.818L18.4841 47.7609L18.427 47.7038L18.3413 47.6467L18.2842 47.5895L18.227 47.5324L18.1699 47.4467L18.1128 47.3896L18.0557 47.3324L17.9985 47.2468L17.9414 47.1896L17.8843 47.1039L17.8557 47.0468L17.7986 46.9611L17.77 46.8754L17.7129 46.8183L17.6843 46.7326L17.6272 46.6469L17.5986 46.5612L17.5701 46.4755L17.5415 46.4184L17.5129 46.3327L17.4844 46.247L17.4558 46.1613V46.0756L17.4272 45.9899L17.3987 45.9042V45.8185L17.3701 45.7328V45.6471L17.3415 45.5615V44.7902L17.3701 44.676V44.5903L17.3987 44.5046V44.4189L17.4272 44.3332L17.4558 44.2475L17.4844 44.1618L17.5129 44.0761L17.5415 43.9904L17.5701 43.9047L17.5986 43.819L17.6272 43.7333L17.6843 43.6476L17.7129 43.5619L17.77 43.4762L17.7986 43.4191L17.8557 43.3334L17.8843 43.2763L17.9414 43.1906L17.9985 43.1049L18.0557 43.0478L18.1128 42.9621L18.1699 42.905L18.227 42.8478L18.2842 42.7907L18.3413 42.705L18.4556 42.5908L18.5412 42.5336L18.5984 42.4765L18.6841 42.4194L18.7412 42.3908L18.8269 42.3337L18.884 42.2765L18.9697 42.2194L19.0554 42.1909L19.1411 42.1337L19.1982 42.1052L19.2839 42.048L19.3696 42.0195L19.4553 41.9909L19.541 41.9338H19.6267L19.7124 41.8766H19.7981L19.8838 41.8481L19.9695 41.8195L20.0552 41.7909L20.1409 41.7624H20.3122L20.4265 41.7338H20.5979L20.6836 41.7053H21.0835L21.1692 41.7338H21.4548L21.5691 41.7624H21.6262L21.7405 41.7909H21.8262L21.9118 41.8195L21.969 41.8481H22.0547L22.1404 41.8766L22.2261 41.9052L22.3117 41.9338L22.3974 41.9623L22.4546 41.9909L22.5403 42.0195L22.626 42.0766L22.7117 42.1052L22.7973 42.1623L22.8545 42.1909L22.9402 42.248L23.0259 42.2765L23.1116 42.3337L23.1687 42.3908L23.2544 42.4194L23.3115 42.4765L23.3972 42.5336L23.4543 42.6193L23.54 42.6479L23.4829 42.7336L23.4258 42.7907L23.3686 42.8764L23.3115 42.9335L23.2544 43.0192L23.1972 43.0763L23.1401 43.162L23.083 43.2192L23.0259 43.2763L22.9687 43.362L22.9116 43.4477L22.8259 43.5048L22.7688 43.5619L22.7402 43.6476L22.5403 43.8476L22.4831 43.9333L22.426 43.8761L22.3403 43.819L22.2832 43.7619L22.1975 43.7048L22.1404 43.6762L22.0547 43.6191L21.969 43.5619L21.9118 43.5334L21.8262 43.5048L21.769 43.4477L21.6833 43.4191L21.5976 43.3906L21.5119 43.362H21.4263L21.3406 43.3334L21.2549 43.3049H21.0549L20.9692 43.2763H20.7693L20.6836 43.3049H20.5979L20.5122 43.3334H20.4265L20.3408 43.362L20.2551 43.3906L20.198 43.4477L20.1123 43.4762L20.0266 43.5048L19.9695 43.5619L19.8838 43.6191L19.7695 43.7333L19.6838 43.7619L19.6267 43.8476L19.5696 43.9047L19.5124 43.9618L19.4839 44.0475L19.4267 44.1047L19.3982 44.1904L19.3411 44.2761L19.3125 44.3617L19.2839 44.4189L19.2268 44.5046L19.1982 44.6188V44.7045L19.1697 44.7902V44.8759L19.1411 44.9616V45.3615L19.1697 45.4472V45.5329L19.1982 45.6186V45.7043L19.2268 45.79L19.2554 45.8757L19.2839 45.9328L19.3411 46.1042L19.3982 46.1899L19.4267 46.2756L19.4839 46.3327L19.541 46.4184L19.7695 46.6469L19.8552 46.704L19.9123 46.7612L19.998 46.8183L20.0552 46.8468L20.1409 46.904L20.2265 46.9325L20.3122 46.9611L20.3979 46.9897L20.4836 47.0182L20.5979 47.0468H20.6836L20.7693 47.0754H21.1692L21.2834 47.0468H21.3691L21.4548 47.0182H21.5405L21.6262 46.9897L21.7119 46.9611L21.7976 46.9325L21.8833 46.904L21.969 46.8468L22.0261 46.8183L22.0832 46.7897V45.9328H20.7693V44.6188H23.7685V47.5895ZM23.8542 15.9116H20.5408V21.4245H23.8542V24.7094H20.5408V30.2224H23.8542V33.5073H17.2559V12.6267H23.8542V15.9116ZM26.3679 48.2465L26.3393 48.3322L26.3108 48.3893L26.2536 48.475H24.4255L24.4826 48.3893L24.5112 48.3322L24.5398 48.2465L24.5683 48.1322L24.5969 48.0751L24.654 47.9894L24.6826 47.9037L24.7112 47.818L24.7683 47.7323L24.7969 47.6467L24.8254 47.561L24.854 47.4753L24.8825 47.3896L24.9397 47.3039V47.2468L24.9682 47.1611L25.0254 47.0754L25.0539 46.9897L25.0825 46.904L25.1396 46.8468L25.1682 46.7612L25.1968 46.6755L25.2253 46.5898L25.2824 46.5041L25.311 46.4184L25.3396 46.3327L25.3967 46.247L25.4253 46.1613L25.4538 46.0756L25.4824 45.9899L25.511 45.9042L25.5681 45.8185L25.5967 45.7614L25.6252 45.6471L25.6538 45.5615L25.7109 45.5043L25.7395 45.4186L25.768 45.3329L25.7966 45.2472L25.8537 45.1615L25.8823 45.0759L25.9109 44.9902L25.9394 44.9045L25.9966 44.8188L26.0251 44.7331L26.0537 44.6474L26.0823 44.5617L26.1108 44.476L26.1679 44.4189L26.1965 44.3332L26.2251 44.2475L26.2822 44.1618L26.3108 44.0761L26.3393 43.9904L26.3679 43.9047L26.3965 43.819L26.4536 43.7333L26.4822 43.6476L26.5107 43.5619L26.5393 43.4762L26.5678 43.3906L26.625 43.3049L26.6535 43.2477L26.6821 43.162L26.7392 43.0478L26.7678 42.9907L26.7964 42.905L26.8249 42.8193L26.8535 42.7336L26.9106 42.6479L26.9392 42.5622L26.9677 42.4765L26.9963 42.3908L27.0534 42.3051L27.082 42.2194L27.1106 42.1623L27.1391 42.048L27.1963 41.9623L27.2248 41.9052L27.2534 41.8195H28.9387L28.9958 41.9052L29.0244 41.9623L29.0529 42.048L29.0815 42.1623L29.1101 42.2194L29.1386 42.3051L29.1672 42.3908L29.2243 42.4765L29.2529 42.5336L29.2815 42.6479L29.3386 42.705L29.3672 42.7907L29.3957 42.8764L29.4243 42.9621L29.4528 43.0478L29.51 43.1335L29.5385 43.2192L29.5671 43.3049L29.5957 43.3906L29.6528 43.4762L29.6814 43.5619L29.7099 43.6476L29.7385 43.7333L29.7956 43.819L29.8242 43.8761L29.8528 43.9618L29.8813 44.0475L29.9384 44.1332L29.967 44.2189L29.9956 44.3046L30.0241 44.3903L30.0527 44.476L30.1098 44.5617L30.1384 44.6474L30.167 44.7331L30.2241 44.8188L30.2527 44.9045L30.2812 44.9902L30.3098 45.0473L30.3383 45.133L30.3669 45.2187L30.3955 45.3044L30.4526 45.3901L30.4812 45.4758L30.5097 45.5329L30.5383 45.6186L30.5954 45.7328L30.624 45.79L30.6526 45.8757L30.6811 45.9614L30.7382 46.047L30.7668 46.1327L30.7954 46.2184L30.8239 46.3041L30.8525 46.3898L30.9096 46.4755L30.9382 46.5612L30.9668 46.6469L31.0239 46.7326L31.0525 46.8183L31.081 46.904L31.1096 46.9611L31.1381 47.0468L31.1953 47.1325L31.2238 47.2182L31.2524 47.3039L31.281 47.3896L31.3381 47.4753L31.3667 47.561L31.3952 47.6467L31.4238 47.7323L31.4809 47.818L31.5095 47.9037L31.5381 47.9894L31.5666 48.0751L31.6237 48.1322L31.6523 48.2465L31.6809 48.3322L31.7094 48.3893L31.738 48.475H29.8813L29.8242 48.3893L29.7956 48.3322L29.7671 48.2465L29.7385 48.1322L29.7099 48.0751L29.6814 47.9894L29.6242 47.9037L29.5957 47.818L29.5671 47.7323L29.5385 47.6467L29.51 47.561L29.4814 47.4753L29.4243 47.3896L29.3957 47.3039L29.3672 47.2182H26.7678L26.7392 47.3039L26.7107 47.3896L26.6535 47.4753L26.625 47.561L26.5964 47.6467L26.5678 47.7323L26.5393 47.818L26.5107 47.9037L26.4536 47.9894L26.425 48.0751L26.3965 48.1322L26.3679 48.2465ZM43.1352 55.4447L34.7373 59.1295H34.5944L26.5393 55.4447C26.3393 55.359 26.3965 55.0734 26.5964 55.0734H43.0495C43.278 55.0734 43.3351 55.359 43.1352 55.4447ZM46.0773 48.475H40.7929V41.8481H46.0488V43.3334H42.5068V44.4189H45.6774V45.8471H42.5068V46.9897H46.0773V48.475ZM52.3615 46.7612L52.3329 46.8468V46.9325L52.3044 47.0182L52.2758 47.1039L52.2472 47.2182L52.2187 47.2753L52.1901 47.361L52.133 47.4467L52.1044 47.5038L52.0473 47.5895L51.9902 47.6752L51.9616 47.7323L51.9045 47.7895L51.8473 47.8752L51.7902 47.9037L51.7045 47.9894L51.6474 48.0466L51.5617 48.1037L51.5046 48.1322L51.4189 48.1894L51.3332 48.2465L51.2761 48.2751L51.1904 48.3322L51.0761 48.3608L50.9904 48.3893L50.9047 48.4179L50.819 48.4465L50.7333 48.475L50.6476 48.5036H50.5619L50.4762 48.5321H50.3906L50.3049 48.5607H50.1335L50.0192 48.5893H49.3622L49.2765 48.5607H49.0766L48.9909 48.5321H48.9052L48.8195 48.5036H48.7053L48.6196 48.475L48.5339 48.4465L48.4482 48.4179H48.3625L48.2768 48.3893L48.1911 48.3608L48.1054 48.3322L48.0197 48.3036L47.934 48.2751L47.8483 48.2179L47.7626 48.1894L47.6769 48.1608L47.5912 48.1037L47.5056 48.0751L47.4199 48.018L47.3627 47.9894L47.277 47.9323L47.1913 47.8752L47.1342 47.8466L47.0485 47.7895L46.9914 47.7323L46.9057 47.6752L46.8486 47.6181L46.7629 47.561L46.7057 47.5038L46.7629 47.4467L46.82 47.361L46.8771 47.3039L46.9343 47.2182L46.9914 47.1611L47.0485 47.0754L47.1057 47.0182L47.1628 46.9611L47.2199 46.8754L47.277 46.8183L47.3342 46.7326L47.3913 46.6755L47.4484 46.5898L47.5056 46.5326L47.5627 46.4469L47.6484 46.3898L47.6769 46.3327L47.7626 46.3613L47.8483 46.4184L47.9055 46.4755L47.9911 46.5326L48.0768 46.5898L48.1625 46.6469L48.2197 46.6755L48.3054 46.7326L48.391 46.7612L48.4767 46.8183L48.5339 46.8468L48.6196 46.8754L48.7053 46.904L48.7909 46.9325L48.8766 46.9611L48.9623 46.9897L49.048 47.0182L49.1337 47.0468H49.248L49.3337 47.0754H49.4194L49.5051 47.1039H50.0192L50.1049 47.0754H50.1906L50.2763 47.0468L50.3334 47.0182L50.3906 46.9897L50.4762 46.9325L50.5334 46.8754L50.5619 46.7897L50.5905 46.704V46.5041L50.5619 46.3898L50.4477 46.2756L50.362 46.2184L50.3049 46.1899L50.2192 46.1613L50.1335 46.1327L50.0192 46.0756L49.9621 46.047H49.8764L49.7907 46.0185L49.705 45.9899L49.6193 45.9614L49.5336 45.9328L49.4479 45.9042H49.3337L49.248 45.8757L49.1623 45.8471L49.0766 45.8185H48.9623L48.8766 45.79L48.7909 45.7614L48.7053 45.7328L48.6196 45.7043L48.5339 45.6757L48.4767 45.6471L48.3625 45.6186L48.2768 45.59L48.1911 45.5329L48.1054 45.5043L48.0197 45.4758L47.9055 45.4186L47.8483 45.3615L47.7626 45.3329L47.6769 45.2758L47.5056 45.1044L47.4199 45.0473L47.3627 44.9902L47.3056 44.9045L47.277 44.8473L47.2199 44.7902L47.1913 44.7045L47.1342 44.6188L47.1057 44.5617V44.476L47.0771 44.3903L47.0485 44.3046L47.02 44.2189V44.0475L46.9914 43.9618V43.7333L47.02 43.6476V43.4762L47.0485 43.3906L47.0771 43.3049L47.1057 43.2192V43.1335L47.1342 43.0763L47.1913 42.9907L47.2199 42.905L47.277 42.8193L47.3056 42.7336L47.3627 42.6479L47.4199 42.5908L47.477 42.5051L47.5341 42.4479L47.6198 42.3908L47.6769 42.3051L47.7341 42.2765L47.8198 42.2194L47.8769 42.1623L47.9626 42.1052L48.0483 42.0766L48.134 42.0195L48.2197 41.9909L48.3054 41.9338H48.391L48.4767 41.8766L48.5624 41.8481H48.6196L48.7053 41.8195L48.7909 41.7909H48.8766L48.9623 41.7624H49.1337L49.248 41.7338H49.8193L49.905 41.7624H50.1906L50.3049 41.7909H50.3906L50.4762 41.8195L50.5619 41.8481H50.6476L50.7333 41.8766L50.819 41.9052L50.9047 41.9338H50.9904L51.0761 41.9909L51.1618 42.0195L51.2475 42.048L51.3332 42.0766L51.4189 42.1337L51.5046 42.1623L51.5617 42.1909L51.6474 42.248L51.7331 42.3051L51.8188 42.3337L51.8759 42.3908L51.9616 42.4479L52.0473 42.5051L52.1044 42.5622L52.1901 42.6193L52.133 42.6764L52.0759 42.7621L52.0187 42.8193L51.9616 42.905L51.9045 42.9907L51.8759 43.0478L51.8188 43.1335L51.7616 43.1906L51.7045 43.2763L51.676 43.3334L51.6188 43.4191L51.5617 43.5048L51.5046 43.5619L51.4474 43.6476L51.3903 43.7333L51.3617 43.7905L51.3046 43.8761L51.2189 43.819L51.1332 43.7619L51.0761 43.7333L50.9904 43.6762L50.9047 43.6191L50.8476 43.5905L50.7619 43.5334L50.7048 43.5048L50.6191 43.4762L50.5334 43.4477L50.4477 43.4191L50.3906 43.362L50.2763 43.3334L50.1906 43.3049L50.1049 43.2763H50.0192L49.905 43.2477H49.8193L49.7336 43.2192H49.2765L49.1623 43.2477L49.1052 43.2763L49.0195 43.3049L48.9623 43.3334L48.8766 43.4191L48.8195 43.5048L48.7909 43.5619L48.7624 43.6762L48.7909 43.7905L48.8195 43.9047L48.8766 43.9618L48.9338 44.019L49.0195 44.0761L49.0766 44.1047L49.1623 44.1618L49.2765 44.1904L49.3908 44.2189L49.4479 44.2475L49.5336 44.2761H49.6193L49.6764 44.3046L49.7907 44.3332L49.8764 44.3617L49.9907 44.3903L50.0763 44.4189H50.1906L50.2763 44.4474L50.362 44.476L50.4762 44.5046L50.6476 44.5617L50.7333 44.5903L50.819 44.6188L50.9047 44.6474L50.9904 44.676L51.0761 44.7045L51.1618 44.7616L51.2761 44.7902L51.3617 44.8188L51.4474 44.8759L51.5046 44.933L51.5903 44.9616L51.676 45.0187L51.7331 45.0759L51.8188 45.133L51.8759 45.1901L51.933 45.2758L52.0187 45.3329L52.0759 45.4186L52.1044 45.4758L52.1615 45.5615L52.2187 45.6471L52.2472 45.7043L52.2758 45.79L52.3044 45.8757V45.9614L52.3329 46.047L52.3615 46.1327V46.7612ZM52.4472 20.3105H49.1623V17.0256C49.1623 16.3972 48.6481 15.9116 48.0483 15.9116H46.9628C46.3344 15.9116 45.8488 16.3972 45.8488 17.0256V28.9084C45.8488 29.7939 46.2773 30.2224 47.1913 30.2224H47.8483C48.7338 30.2224 49.1623 29.7939 49.1623 28.9084V25.8234H52.4472V29.6225C52.4472 32.2219 51.1047 33.5073 48.3625 33.5073H46.6772C43.9064 33.5073 42.5639 32.1933 42.5639 29.5083V16.6257C42.5639 13.9407 43.9064 12.6267 46.6772 12.6267H48.3339C51.1047 12.6267 52.4472 13.9121 52.4472 16.5971V20.3105ZM31.5381 22.51V17.0256C31.5381 16.3972 31.0525 15.9116 30.4526 15.9116H29.3386V23.624H30.4526C31.0525 23.624 31.5381 23.1384 31.5381 22.51ZM28.853 45.8185L28.8244 45.7328L28.7959 45.6471L28.7387 45.5615L28.7102 45.4758L28.6816 45.4186L28.653 45.3329L28.6245 45.2187L28.5959 45.1615L28.5388 45.0759L28.5102 44.9902L28.4817 44.9045L28.4531 44.8188L28.4245 44.7331L28.396 44.6474L28.3388 44.5617L28.3103 44.476L28.2817 44.3903L28.2531 44.3046L28.2246 44.2189L28.196 44.1332L28.1389 44.0475L28.1103 43.9618L28.0818 43.8761L28.0532 43.9618L28.0246 44.0475L27.9961 44.1332L27.9389 44.2189L27.9104 44.3046L27.8818 44.3903L27.8532 44.476L27.7961 44.5617V44.6474L27.739 44.7331L27.7104 44.8188L27.6819 44.9045L27.6533 44.9902L27.6247 45.0759L27.5962 45.1615L27.539 45.2187L27.5105 45.3329L27.4819 45.4186L27.4533 45.4758L27.4248 45.5615L27.3676 45.6757L27.3391 45.7328L27.3105 45.8185H28.853Z" fill="white"/>
</svg>
