<svg width="70" height="70" viewBox="0 0 70 70" fill="none" xmlns="http://www.w3.org/2000/svg">
<path fill-rule="evenodd" clip-rule="evenodd" d="M8.33333 5H61.6667C63.5083 5 65 6.49167 65 8.33333V61.6667C65 63.5083 63.5083 65 61.6667 65H8.33333C6.49167 65 5 63.5083 5 61.6667V8.33333C5 6.49167 6.49167 5 8.33333 5ZM12.6666 55H22.5V51.6667H14.3333C13.7816 51.6667 13.3333 51.2183 13.3333 50.6667V44.3333C13.3333 43.7817 13.7816 43.3333 14.3333 43.3333H22.5V40H12.6666C11.1933 40 9.99996 41.195 9.99996 42.6666V52.3333C9.99996 53.8067 11.195 55 12.6666 55ZM30.1666 30H39.8333C41.3033 30 42.5 28.8033 42.5 27.3333V17.6666C42.5 16.1966 41.3033 15 39.8333 15H30.1666C28.6966 15 27.5 16.1966 27.5 17.6666V27.3333C27.5 28.8033 28.6966 30 30.1666 30ZM38.1666 26.6666H31.8333C31.2816 26.6666 30.8333 26.2183 30.8333 25.6666V19.3333C30.8333 18.7816 31.2816 18.3333 31.8333 18.3333H38.1666C38.7183 18.3333 39.1666 18.7816 39.1666 19.3333V25.6666C39.1666 26.2183 38.7183 26.6666 38.1666 26.6666ZM27.6666 55H37.3333C38.8033 55 40 53.8033 40 52.3333V42.6666C40 41.1967 38.8033 40 37.3333 40H27.6666C26.1966 40 25 41.1967 25 42.6666V52.3333C25 53.8033 26.1966 55 27.6666 55ZM35.6666 51.6667H29.3333C28.7816 51.6667 28.3333 51.2183 28.3333 50.6667V44.3333C28.3333 43.7817 28.7816 43.3333 29.3333 43.3333H35.6666C36.2183 43.3333 36.6666 43.7817 36.6666 44.3333V50.6667C36.6666 51.2183 36.2183 51.6667 35.6666 51.6667ZM42.5 42.6666C42.5 41.1933 43.695 40 45.1666 40H60V55H56.6666V43.3333H53.9166C53.365 43.3333 52.9166 43.7817 52.9166 44.3333V55H49.5833V43.3333H46.8333C46.2816 43.3333 45.8333 43.7817 45.8333 44.3333V55H42.5V42.6666ZM45 36.6666H57.3333C58.8066 36.6666 60 35.4733 60 34V17.6666C60 16.1933 58.805 15 57.3333 15H47.6666C46.1933 15 45 16.1933 45 17.6666V27.3333C45 28.8066 46.195 30 47.6666 30H54.1666V26.6666H49.3333C48.7816 26.6666 48.3333 26.2183 48.3333 25.6666V19.3333C48.3333 18.7816 48.7816 18.3333 49.3333 18.3333H55.6666C56.2183 18.3333 56.6666 18.7816 56.6666 19.3333V32.3333C56.6666 32.885 56.2183 33.3333 55.6666 33.3333H45V36.6666ZM9.99996 36.6666H22.3333C23.8066 36.6666 25 35.4733 25 34V17.6666C25 16.1933 23.805 15 22.3333 15H12.6666C11.1933 15 9.99996 16.1933 9.99996 17.6666V27.3333C9.99996 28.8066 11.195 30 12.6666 30H19.1666V26.6666H14.3333C13.7816 26.6666 13.3333 26.2183 13.3333 25.6666V19.3333C13.3333 18.7816 13.7816 18.3333 14.3333 18.3333H20.6666C21.2183 18.3333 21.6666 18.7816 21.6666 19.3333V32.3333C21.6666 32.885 21.2183 33.3333 20.6666 33.3333H9.99996V36.6666Z" fill="white"/>
</svg>
