<svg width="70" height="70" viewBox="0 0 70 70" fill="none" xmlns="http://www.w3.org/2000/svg">
<path fill-rule="evenodd" clip-rule="evenodd" d="M2 35.4037C2 39.852 5.45894 43.5172 10.6327 43.5195H59.3685C64.5423 43.5172 68 39.852 68 35.4037C68 30.9579 64.5341 27.2469 59.3767 27.261H10.6257C5.46598 27.2469 2 30.9579 2 35.4037ZM4.03716 35.3932C4.03716 32.0069 6.55019 29.2665 10.6479 29.2595H59.3509C63.4487 29.2665 65.9629 32.0069 65.9629 35.3932C65.9629 38.7806 63.4651 41.5398 59.3509 41.5258H10.6479C6.5373 41.5398 4.03716 38.7806 4.03716 35.3932Z" fill="white"/>
<path d="M8.54637 31.5487H10.9328L14.2324 36.8866L14.2311 31.5487H16.5965V39.2039H14.2335L10.9175 33.866V39.2039H8.54633V31.5487H8.54637Z" fill="white"/>
<path d="M29.4606 32.3363H31.765V33.3666H33.0109V34.1238H31.765L31.7673 39.2038H29.4606L29.4617 34.1238H28.2111V33.3689L29.4617 33.3666L29.4606 32.3363L29.4606 32.3363Z" fill="white"/>
<path d="M17.914 34.1133H20.2161V39.205H17.914V34.1133Z" fill="white"/>
<path d="M17.9083 31.5463H20.2162V33.1123H17.9083V31.5463Z" fill="white"/>
<path d="M58.2504 33.7674C56.3926 33.7674 54.8864 35.045 54.8864 36.6239C54.8864 38.2016 56.3926 39.4815 58.2504 39.4815C60.1094 39.4815 61.6132 38.2016 61.6132 36.6239C61.6132 35.045 60.1094 33.7674 58.2504 33.7674ZM59.1752 36.6169C59.1752 36.6169 59.1729 37.3858 59.1729 37.6952C59.1729 38.5063 58.6946 38.8404 58.2317 38.8404C57.7698 38.8404 57.2881 38.5063 57.2881 37.6952C57.2881 37.3858 57.2892 36.5969 57.2892 36.5969C57.2892 36.5969 57.2905 35.8456 57.2905 35.5373C57.2905 34.7286 57.7746 34.3969 58.2318 34.3969C58.6912 34.3969 59.173 34.7286 59.173 35.5373C59.173 35.8456 59.1718 36.4164 59.1753 36.6192V36.6169L59.1752 36.6169Z" fill="white"/>
<path d="M51.8811 36.6333V35.7226C51.8811 34.9349 51.3372 34.7356 50.9797 34.7356C50.6128 34.7356 50.0772 34.9349 50.0772 35.7226V36.6286V37.5347C50.0772 38.3235 50.6128 38.5263 50.9797 38.5263C51.3372 38.5263 51.8811 38.3235 51.8811 37.5347V36.6333V36.6333ZM51.8658 31.5486H54.1362V39.2026H51.8611C51.8611 39.2026 51.86 38.9553 51.86 38.9096C50.9797 39.4605 49.9858 39.4605 49.2098 39.1018C49.0024 39.0033 47.6368 38.3481 47.6368 36.5759C47.6368 35.2326 48.9027 33.7651 50.5625 33.9116C51.1087 33.9597 51.4967 34.1589 51.8659 34.3676V31.5486H51.8658Z" fill="white"/>
<path d="M25.6044 33.8788C26.4659 33.8542 28.21 34.4168 28.1983 36.4317C28.196 36.7915 28.1972 39.2026 28.1972 39.2026H25.9115V35.8597C25.9115 35.4155 25.4872 34.9232 24.8589 34.9232C24.2319 34.9232 23.7665 35.4155 23.7665 35.8597C23.7665 36.0766 23.7689 39.2026 23.7689 39.2026H21.4844L21.4821 34.1132L23.7689 34.1109C23.7689 34.1109 23.7665 34.52 23.7689 34.6466C24.2096 34.2269 24.8449 33.8999 25.6044 33.8788" fill="white"/>
<path d="M44.3092 33.8788C45.1695 33.8542 46.916 34.4168 46.9042 36.4317C46.9019 36.7915 46.9042 39.2026 46.9042 39.2026H44.6163V35.8597C44.6163 35.4155 44.1919 34.9232 43.5637 34.9232C42.9366 34.9232 42.4724 35.4155 42.4724 35.8597C42.4724 36.0766 42.4748 39.2026 42.4748 39.2026H40.1903V34.1132L42.4748 34.1109C42.4748 34.1109 42.4724 34.52 42.4748 34.6466C42.9143 34.2269 43.5484 33.8999 44.3092 33.8788" fill="white"/>
<path d="M37.0677 37.4221C37.0677 37.4221 37.0689 37.4456 37.0689 37.7316C37.0689 38.6622 36.457 38.8697 36.1171 38.8697C35.7784 38.8697 35.1536 38.6622 35.1536 37.7316C35.1536 37.4526 35.156 36.6813 35.156 36.6813C35.156 36.6813 39.4917 36.6837 39.4917 36.679C39.4917 35.1013 37.9679 33.7944 36.096 33.7944C34.2241 33.7944 32.7074 35.072 32.7074 36.652C32.7074 38.2321 34.2241 39.5085 36.096 39.5085C37.6491 39.5085 38.9619 38.6224 39.3616 37.4198L37.0677 37.4221H37.0677ZM35.156 35.8866C35.1513 35.4412 35.1607 35.1435 35.3072 34.8892C35.4865 34.575 35.8171 34.4262 36.1171 34.4238C36.416 34.4262 36.7466 34.575 36.9247 34.8892C37.0713 35.1435 37.0795 35.4412 37.0759 35.8866H35.156V35.8866Z" fill="white"/>
</svg>
