<svg width="70" height="70" viewBox="0 0 70 70" fill="none" xmlns="http://www.w3.org/2000/svg">
<path d="M35.9848 12.7737C38.9866 12.9512 41.9228 13.7337 44.6115 15.0713C47.2144 16.3563 49.5346 18.1339 51.4432 20.3065C53.3393 22.4691 54.7808 24.9392 55.773 27.7143C56.7602 30.4869 57.1565 33.4096 56.9445 36.4697C56.8612 38.0598 56.6036 39.5998 56.1719 41.0899C55.7503 42.56 55.1797 43.9875 54.4703 45.3476C53.362 47.4702 52.1249 49.4778 50.7591 51.3779C49.4008 53.2754 47.9188 55.0405 46.3106 56.6731C44.6999 58.3057 42.9957 59.8082 41.1805 61.1783C39.3653 62.5384 37.4668 63.7734 35.4899 64.876L35.3965 64.941C35.3132 64.986 35.2173 65.006 35.1214 64.9985C34.9623 64.961 34.8234 64.8785 34.7199 64.7559C34.6164 64.6309 34.5609 64.4784 34.5634 64.3234C34.5634 64.2509 34.5735 64.1759 34.5937 64.1109C34.6139 64.0534 34.6467 64.0009 34.6871 63.9559C35.3864 62.9734 35.9646 61.9408 36.419 60.8683C36.876 59.7832 37.184 58.6557 37.3481 57.4706C37.3481 57.3906 37.3102 57.3106 37.2522 57.2581C37.1991 57.1956 37.1184 57.1631 37.0376 57.1631C36.3711 57.2431 35.7045 57.2956 35.0305 57.3181C34.3589 57.3406 33.6873 57.3106 33.0208 57.2256C30.019 57.0481 27.0803 56.2631 24.3916 54.9305C21.7886 53.643 19.471 51.8654 17.5624 49.6928C15.6588 47.5177 14.1894 45.0051 13.2326 42.285C12.2379 39.4773 11.839 36.4997 12.0586 33.5296C12.1419 31.9395 12.3995 30.3994 12.8312 28.9094C13.2629 27.4143 13.8309 26.0217 14.5353 24.7092C15.6436 22.5491 16.8858 20.519 18.244 18.6189C19.6048 16.7263 21.0843 14.9588 22.6899 13.3237C24.3032 11.6936 26.0073 10.1935 27.8226 8.82349C29.6403 7.45843 31.5338 6.22587 33.5106 5.12583L33.6066 5.06332C33.6899 5.01332 33.7833 4.99582 33.8817 5.00082C34.0458 5.04082 34.1822 5.12833 34.2806 5.24583C34.3892 5.37334 34.4372 5.51084 34.4372 5.68085C34.4397 5.74835 34.4296 5.82336 34.4069 5.89086C34.3892 5.94836 34.3564 5.99836 34.316 6.04337C33.6268 7.00841 33.041 8.04595 32.5815 9.136C32.1246 10.2185 31.8241 11.3486 31.6575 12.5312C31.6575 12.6137 31.6878 12.6887 31.7484 12.7462C31.804 12.8062 31.8847 12.8387 31.963 12.8387C32.6245 12.7562 33.2935 12.7062 33.9701 12.6862C34.6568 12.6637 35.3233 12.6937 35.9848 12.7737V12.7737ZM33.9474 43.6925C36.2751 43.89 38.5877 43.115 40.312 41.5549C42.1298 39.9574 43.1119 37.9598 43.281 35.5547C43.478 33.2346 42.6953 30.9395 41.1199 29.2169C39.6026 27.4468 37.4036 26.3893 35.0608 26.3118C32.7204 26.1167 30.4028 26.8918 28.6633 28.4494C26.8733 29.9544 25.8054 32.132 25.7246 34.4496C25.5277 36.7647 26.3002 39.0548 27.8604 40.7874C29.4459 42.6 31.4757 43.575 33.9474 43.6925Z" fill="white"/>
</svg>
