<svg width="60" height="60" viewBox="0 0 60 60" fill="none" xmlns="http://www.w3.org/2000/svg">
<circle cx="30" cy="30" r="30" fill="#C73030"/>
<path fill-rule="evenodd" clip-rule="evenodd" d="M29.4646 15.8538H32.0722C33.2234 13.9979 36.6532 10.3706 41.1638 10.7089C46.802 11.1318 49.8325 13.669 51.1716 20.5757C52.246 26.1178 52.722 32.5569 52.722 36.3626C52.7221 40.1684 52.2118 45.1214 49.6915 45.7361C46.802 46.4409 45.6039 45.8771 43.0667 42.2827C42.8281 41.9448 42.5865 41.5969 42.3414 41.2439C41.9132 40.6273 41.4741 39.995 41.0217 39.3732C40.385 39.5929 39.7015 39.7122 38.9902 39.7122C35.7137 39.7122 33.0285 37.1804 32.7842 33.9664L30.3103 33.9664H27.2155C26.9713 37.1804 24.286 39.7122 21.0095 39.7122C20.2315 39.7122 19.4868 39.5695 18.8002 39.3087C18.3312 39.9513 17.8765 40.606 17.4335 41.2439C17.1884 41.5969 16.9468 41.9448 16.7082 42.2827C14.171 45.8771 12.9729 46.4409 10.0834 45.7361C7.56307 45.1214 7.05283 40.1684 7.05286 36.3626C7.05288 32.5569 7.52887 26.1178 8.60334 20.5757C9.9424 13.669 12.9729 11.1318 18.6111 10.7089C23.1217 10.3706 26.5515 13.9979 27.7027 15.8538L29.4646 15.8538Z" fill="white"/>
<path d="M43.4624 33.4261C43.4624 35.9056 41.4523 37.9157 38.9728 37.9157C36.4932 37.9157 34.4832 35.9056 34.4832 33.4261C34.4832 30.9465 36.4932 28.9365 38.9728 28.9365C41.4523 28.9365 43.4624 30.9465 43.4624 33.4261Z" fill="#242424"/>
<path d="M25.494 33.4261C25.494 35.9056 23.4839 37.9157 21.0044 37.9157C18.5248 37.9157 16.5148 35.9056 16.5148 33.4261C16.5148 30.9465 18.5248 28.9365 21.0044 28.9365C23.4839 28.9365 25.494 30.9465 25.494 33.4261Z" fill="#242424"/>
</svg>
