<svg width="70" height="70" viewBox="0 0 70 70" fill="none" xmlns="http://www.w3.org/2000/svg">
<path fill-rule="evenodd" clip-rule="evenodd" d="M64.4664 47.5893C63.2944 49.0741 60.4229 50.1333 60.4229 50.1333L39.062 57.8377V52.1559L54.7822 46.5315C56.5661 45.8897 56.84 44.9824 55.39 44.5062C53.9427 44.0286 51.322 44.1655 49.5367 44.81L39.062 48.5144V42.6177L39.6657 42.4125C39.6657 42.4125 42.6925 41.3369 46.9486 40.8634C51.2048 40.3926 56.4162 40.9277 60.5074 42.485C65.1178 43.9479 65.6371 46.1046 64.4664 47.5893ZM41.0953 37.9144V23.3842C41.0953 21.6777 40.7819 20.1067 39.1874 19.662C37.9663 19.2692 37.2085 20.4078 37.2085 22.1129V58.5L27.4357 55.3854V12C31.591 12.7745 37.6446 14.6055 40.8991 15.7071C49.1755 18.5604 51.9816 22.1115 51.9816 30.1128C51.9816 37.9116 47.1871 40.8675 41.0953 37.9144ZM9.50364 51.5619C4.77054 50.2236 3.98283 47.4347 6.14018 45.8281C8.134 44.3447 11.5247 43.2281 11.5247 43.2281L25.5373 38.225V43.9287L15.4537 47.5524C13.6725 48.1942 13.3986 49.1028 14.8459 49.5791C16.2946 50.0553 18.9167 49.9198 20.7006 49.2766L25.5373 47.5141V52.617C25.2306 52.6718 24.8886 52.7265 24.5724 52.7799C19.7344 53.5736 14.5815 53.2424 9.50364 51.5619Z" fill="white"/>
</svg>
