<svg width="70" height="70" viewBox="0 0 70 70" fill="none" xmlns="http://www.w3.org/2000/svg">
<path d="M65 17.8182V48.3636C65 49.3691 64.8063 50.3618 64.4313 51.2845C64.05 52.2136 63.5 53.0536 62.8063 53.7664C62.1063 54.4727 61.2813 55.0327 60.3688 55.4209C59.4625 55.8027 58.4875 56 57.5 56H12.5C11.5125 56 10.5375 55.8027 9.63125 55.4145C8.71875 55.0327 7.89375 54.4727 7.2 53.76C6.5 53.0536 5.95 52.2136 5.575 51.2845C5.19375 50.3618 5 49.3691 5 48.3636V17.8182L20 29.2727L35 14L50 29.2727L65 17.8182Z" fill="white"/>
</svg>
