<svg width="70" height="70" viewBox="0 0 70 70" fill="none" xmlns="http://www.w3.org/2000/svg">
<path d="M2.00342 44.9252L10.7118 44.9164C14.2747 44.9164 17.1621 42.0378 17.1621 38.4909C17.1621 34.9371 14.2747 32.0583 10.7118 32.0583L8.45021 32.0706C8.27199 32.0706 8.12745 31.9245 8.12745 31.7446C8.12745 31.5648 8.27199 31.4184 8.45021 31.4184L17.1428 31.4202L17.1463 28.6932H8.44835C6.76671 28.6932 5.39853 30.0593 5.39853 31.7377C5.39853 33.4177 6.76648 34.7784 8.44835 34.7784L10.7207 34.8084C12.762 34.8084 14.4139 36.4547 14.4139 38.4858C14.4139 40.5183 12.7623 42.1684 10.7207 42.1684H2.0069L2.00342 44.9252" fill="white"/>
<path d="M2.00697 41.5283H10.7207C12.4077 41.5283 13.7722 40.1675 13.7722 38.4857C13.7722 36.8056 12.4077 35.4465 10.7207 35.4465L8.44842 35.4219C6.41056 35.4219 4.75704 33.7737 4.75704 31.7375C4.75704 29.7068 6.41056 28.0584 8.44842 28.0584L17.1464 28.0565L17.1429 25.319H8.45028C4.89111 25.319 2 28.1943 2 31.7447C2 35.295 4.89111 38.172 8.45028 38.172L10.6996 38.1754C10.8706 38.1754 11.0151 38.3149 11.0151 38.491C11.0151 38.6639 10.8706 38.8031 10.6996 38.8031L2.00349 38.81L2.00697 41.5283" fill="white"/>
<path d="M23.9138 42.1859C22.403 42.1859 21.1654 40.9817 21.1654 39.4444V30.745C21.1654 29.266 22.403 28.0496 23.9138 28.0496L33.2092 28.0512V25.319H23.9138C20.8888 25.319 18.4385 27.7605 18.4385 30.775V39.4446C18.4385 42.4594 20.8888 44.9043 23.9138 44.9043L33.1704 44.908L33.1685 42.1826L23.9138 42.1859" fill="white"/>
<path d="M21.8318 30.775C21.8318 29.6222 22.7592 28.6879 23.9138 28.6879H33.2092V31.4238H25.2007C24.5591 31.4238 24.5503 32.0602 24.5503 32.0602H31.2315V34.7838H21.8286L21.8318 30.775Z" fill="white"/>
<path d="M23.9139 41.5232C22.7627 41.5232 21.8284 40.5942 21.8284 39.4447V35.4324H31.2313V38.1616H24.5501C24.5589 38.8032 25.2005 38.8064 25.2005 38.8064H33.1702L33.1684 41.5195L23.9139 41.5232" fill="white"/>
<path d="M39.7232 42.1789C38.2177 42.1789 36.9873 40.952 36.9873 39.4444V30.7748C36.9873 29.2658 38.2088 28.0493 39.716 28.0493H48.719V25.319H39.6951C36.6715 25.319 34.2212 27.7605 34.2212 30.775V39.4446C34.2212 42.4594 36.6926 44.9043 39.716 44.9043L48.719 44.908V32.0602H40.9819V34.7838H45.9848V42.1789H39.7232Z" fill="white"/>
<path d="M37.6289 39.4443C37.6289 40.5994 38.5632 41.5389 39.716 41.5389H45.3395V35.4288H40.9887V38.1614H42.6034L42.6085 38.803H41.001C40.6501 38.803 40.3629 38.5123 40.3629 38.1614L40.3485 32.0583C40.3485 32.0583 40.3466 31.4237 40.9938 31.4079H48.7221L48.7186 28.686L39.7155 28.6878C38.5628 28.6878 37.6284 29.6222 37.6284 30.775V39.4443" fill="white"/>
<path d="M57.1788 28.6473C57.3001 28.3001 57.6299 28.0499 58.0195 28.0499C58.4095 28.0499 58.7424 28.3001 58.8605 28.6473L63.2308 41.5583H56.8315L56.8384 38.521H58.9769L58.0142 35.6599L54.8782 44.9058H51.6522L57.1788 28.6473" fill="white"/>
<path d="M64.112 42.1789H56.8421V44.9057H67.9056L62.1517 27.8821C61.6475 26.2216 59.9854 25 58.0177 25C56.047 25 54.39 26.2162 53.882 27.8753L48.0754 44.906H50.9718L56.6095 28.3512C56.8384 27.803 57.3782 27.4169 58.0128 27.4169C58.6439 27.4169 59.1867 27.803 59.4177 28.3477L64.112 42.1789" fill="white"/>
</svg>
