<svg width="70" height="70" viewBox="0 0 70 70" fill="none" xmlns="http://www.w3.org/2000/svg">
<path d="M64.8393 34.9196C64.8393 18.3442 51.4951 5 34.9196 5C18.3442 5 5 18.3442 5 34.9196C5 51.4951 18.3442 64.8393 34.9196 64.8393C51.4951 64.8393 64.8393 51.4951 64.8393 34.9196Z" fill="white"/>
<path d="M29.6534 36.7006C28.6009 36.7006 27.5588 36.9079 26.5865 37.3106C25.6141 37.7134 24.7306 38.3037 23.9865 39.0479C23.2423 39.792 22.652 40.6755 22.2492 41.6479C21.8465 42.6202 21.6392 43.6623 21.6392 44.7148C21.6392 45.7672 21.8465 46.8093 22.2492 47.7816C22.652 48.754 23.2423 49.6375 23.9865 50.3816C24.7306 51.1258 25.6141 51.7161 26.5865 52.1189C27.5588 52.5217 28.6009 52.7289 29.6534 52.7289C30.7058 52.7289 31.7479 52.5217 32.7203 52.1189C33.6926 51.7161 34.5761 51.1258 35.3202 50.3816C36.0644 49.6375 36.6547 48.754 37.0575 47.7816C37.4602 46.8093 37.6675 45.7672 37.6675 44.7148C37.6675 43.6623 37.4602 42.6202 37.0575 41.6479C36.6547 40.6755 36.0644 39.792 35.3202 39.0479C34.5761 38.3037 33.6926 37.7134 32.7203 37.3106C31.7479 36.9079 30.7058 36.7006 29.6534 36.7006V36.7006ZM29.6534 39.9062C30.9286 39.9062 32.1517 40.4128 33.0535 41.3146C33.9553 42.2164 34.4619 43.4395 34.4619 44.7148C34.4619 45.99 33.9553 47.2131 33.0535 48.1149C32.1517 49.0167 30.9286 49.5233 29.6534 49.5233C28.3781 49.5233 27.155 49.0167 26.2532 48.1149C25.3514 47.2131 24.8448 45.99 24.8448 44.7148C24.8448 43.4395 25.3514 42.2164 26.2532 41.3146C27.155 40.4128 28.3781 39.9062 29.6534 39.9062V39.9062Z" fill="#2B2B2B"/>
<path d="M29.9399 37.6775L39.0245 25.2268L41.3711 32.6346L49.5896 35.4873L36.9458 44.8398L34.0306 40.6147L29.9399 37.6775Z" fill="#2B2B2B"/>
<path d="M48.3531 16.3979C45.5191 16.3979 42.8012 17.5237 40.7972 19.5277C38.7933 21.5316 37.6675 24.2495 37.6675 27.0835C37.6675 29.9175 38.7933 32.6354 40.7972 34.6394C42.8012 36.6433 45.5191 37.7691 48.3531 37.7691C51.1871 37.7691 53.905 36.6433 55.9089 34.6394C57.9129 32.6354 59.0387 29.9175 59.0387 27.0835C59.0387 24.2495 57.9129 21.5316 55.9089 19.5277C53.905 17.5237 51.1871 16.3979 48.3531 16.3979V16.3979ZM48.3531 19.6036C50.3369 19.6036 52.2394 20.3917 53.6422 21.7944C55.0449 23.1972 55.833 25.0997 55.833 27.0835C55.833 29.0673 55.0449 30.9699 53.6422 32.3726C52.2394 33.7754 50.3369 34.5634 48.3531 34.5634C46.3693 34.5634 44.4667 33.7754 43.064 32.3726C41.6612 30.9699 40.8732 29.0673 40.8732 27.0835C40.8732 25.0997 41.6612 23.1972 43.064 21.7944C44.4667 20.3917 46.3693 19.6036 48.3531 19.6036V19.6036Z" fill="#2B2B2B"/>
<path d="M48.353 32.4264C51.3038 32.4264 53.6958 30.0343 53.6958 27.0836C53.6958 24.1328 51.3038 21.7408 48.353 21.7408C45.4023 21.7408 43.0103 24.1328 43.0103 27.0836C43.0103 30.0343 45.4023 32.4264 48.353 32.4264Z" fill="#2B2B2B"/>
<path d="M9.9998 33.0504C9.92763 33.9017 9.88501 34.7614 9.88501 35.632C9.88501 37.1024 9.99303 38.546 10.196 39.9584L27.9232 47.1482C29.5689 47.8158 31.4318 47.0283 32.0993 45.3826C32.7669 43.7369 31.9794 41.874 30.3337 41.2065L11.5192 33.5763C11.1627 33.4317 10.6001 33.2358 9.9998 33.0504Z" fill="#2B2B2B"/>
</svg>
