<svg width="70" height="70" viewBox="0 0 70 70" fill="none" xmlns="http://www.w3.org/2000/svg">
<path d="M33.5656 5C21.4302 5 10.9229 11.336 5.45803 21.947L8.08486 23.222C4.27513 30.4235 4.26759 39.3335 6.57304 45.3425L6.58964 45.3365C7.82082 48.8405 9.84111 52.5065 12.815 55.739C16.7137 59.9765 23.6799 65 34.8028 65C34.9054 65 35.008 65 35.1106 64.9985C47.5295 64.988 65 55.886 65 35.6645C65 15.533 49.1862 5 33.5656 5ZM12.3231 43.109C12.047 43.1495 11.7467 43.145 11.4706 43.1165C10.5925 40.4495 10.6438 37.9295 10.8837 36.02C11.8237 28.547 18.6027 20.8205 28.9924 20.8205H28.9984C39.3217 20.822 43.8269 27.29 45.473 32.1485C45.2694 32.2655 45.0445 32.3825 44.8273 32.489C44.527 32.0075 44.1906 31.532 43.7666 31.0715C41.9998 29.1575 37.0403 24.6875 28.9245 24.9515C19.4658 25.208 12.6973 32.7575 12.3231 43.109ZM40.9512 45.386C39.3488 47.4185 37.2078 48.6155 34.8646 48.764C26.3625 48.7115 26.1121 41.801 26.1121 41.009C26.1121 37.733 28.591 33.1205 34.1042 33.1205C36.0174 33.1205 37.6514 33.881 38.8298 35.072C40.0595 36.3155 40.5589 37.9925 40.2647 39.848C39.9101 42.0815 38.608 44.0645 38.5869 44.093L40.9512 45.386ZM35.0879 59.8265C26.2946 59.8265 17.7985 52.3835 17.6039 44.513C17.4787 39.4655 19.41 34.0895 23.7553 31.5785C23.962 31.7255 24.1325 31.9295 24.2442 32.2025C22.0187 34.649 20.7845 37.8455 20.7845 41.009C20.7845 47.231 25.2128 53.93 34.9356 53.9405C34.9416 53.9405 34.9491 53.9405 34.9552 53.9405C34.9989 53.9405 35.0412 53.9345 35.0864 53.9345C35.0955 53.9345 35.106 53.933 35.1151 53.933C39.4303 53.8925 43.3155 52.265 46.3602 49.2005C49.8275 45.7145 51.7859 40.7315 51.6033 35.873C51.3091 28.055 44.9118 15.6515 29.0014 15.6485C29.0014 15.6485 28.9984 15.6485 28.9954 15.6485C22.6418 15.6485 17.3897 17.816 13.42 21.062C13.0171 20.9195 12.7727 20.6825 12.6399 20.4095C17.5119 13.859 24.9201 10.172 33.5671 10.172C46.5398 10.172 59.6739 18.9275 59.6739 35.6645C59.6724 52.331 45.2965 59.8265 35.0879 59.8265Z" fill="white"/>
</svg>
