<svg width="70" height="70" viewBox="0 0 70 70" fill="none" xmlns="http://www.w3.org/2000/svg">
<path d="M32.5408 10.0705V33.0326C32.5408 33.3043 32.7609 33.5244 33.0326 33.5244H64.5003C64.772 33.5244 64.9921 33.3043 64.9921 33.0326V5.4918C64.9921 5.34898 64.9302 5.21324 64.8222 5.1198C64.7144 5.02636 64.5713 4.98465 64.4295 5.00511L32.9618 9.5838C32.72 9.61902 32.5408 9.82636 32.5408 10.0705Z" fill="white"/>
<path d="M29.0985 60.0718C29.2168 60.0718 29.3318 60.0293 29.4219 59.9506C29.529 59.8571 29.5903 59.722 29.5903 59.5799V36.9672C29.5903 36.6955 29.3702 36.4754 29.0985 36.4754H5.50987C5.37944 36.4754 5.25433 36.5272 5.16207 36.6194C5.0698 36.7117 5.01807 36.8368 5.01807 36.9672L5.01925 56.3472C5.01925 56.5931 5.20082 56.8011 5.44416 56.8345L29.0316 60.0674C29.0539 60.0702 29.0763 60.0718 29.0985 60.0718Z" fill="white"/>
<path d="M5.51325 33.5244H29.0986C29.3702 33.5244 29.5904 33.3043 29.5904 33.0326V10.6422C29.5904 10.5001 29.529 10.3652 29.4222 10.2717C29.3154 10.1783 29.1741 10.1354 29.0325 10.1549L5.42571 13.3607C5.18157 13.3939 4.9998 13.6022 5 13.8485L5.02144 33.033C5.02184 33.3045 5.24197 33.5244 5.51325 33.5244Z" fill="white"/>
<path d="M64.5003 65C64.6182 65 64.7329 64.9577 64.8229 64.8794C64.9304 64.786 64.9921 64.6506 64.9921 64.5082L65 36.9672C65 36.8368 64.9483 36.7117 64.856 36.6194C64.7637 36.5272 64.6386 36.4754 64.5082 36.4754H33.0326C32.7609 36.4754 32.5408 36.6955 32.5408 36.9672V60.0812C32.5408 60.3263 32.7214 60.534 32.9639 60.5683L64.4317 64.9953C64.4547 64.9984 64.4775 65 64.5003 65Z" fill="white"/>
</svg>
