<svg width="70" height="70" viewBox="0 0 70 70" fill="none" xmlns="http://www.w3.org/2000/svg">
<path d="M31.9935 64.8766C27.3743 64.4342 22.6977 62.7753 18.6802 60.1542C15.3137 57.9578 14.5535 57.0549 14.5535 55.253C14.5535 51.6335 18.5332 45.2941 25.3422 38.0672C29.2092 33.9628 34.5957 29.1519 35.1782 29.2822C36.3105 29.5354 45.3642 38.3666 48.7535 42.5239C54.1131 49.0979 56.5771 54.4805 55.3253 56.8803C54.3738 58.7045 48.4694 62.2699 44.1317 63.6396C40.5565 64.7686 35.8613 65.2471 31.9935 64.8766V64.8766ZM10.0067 51.4897C7.20923 47.198 5.79585 42.9729 5.11347 36.862C4.88814 34.8441 4.96889 33.6899 5.62512 29.5482C6.44303 24.3861 9.38272 18.4143 12.915 14.7391C14.4195 13.1738 14.5539 13.1357 16.3877 13.7535C18.6146 14.5037 20.9928 16.1461 24.6811 19.4812L26.833 21.4271L25.6579 22.8707C20.203 29.5721 14.4446 39.0711 12.2744 44.9479C11.0946 48.1427 10.6188 51.3498 11.1264 52.6849C11.4691 53.5864 11.1543 53.2503 10.0067 51.4897ZM59.111 52.2197C59.3874 50.8706 59.0378 48.3929 58.2186 45.8939C56.4445 40.4819 50.5144 30.4139 45.0691 23.5685L43.3549 21.4137L45.2094 19.7108C47.6309 17.4873 49.3121 16.156 51.1261 15.0253C52.5576 14.1331 54.6032 13.3433 55.4825 13.3433C56.0246 13.3433 57.9331 15.3239 59.4738 17.4854C61.86 20.8331 63.6155 24.8913 64.5049 29.1158C65.0795 31.8455 65.1274 37.6883 64.5974 40.4113C64.1625 42.6458 63.2442 45.5444 62.3483 47.5103C61.677 48.9833 60.0075 51.844 59.2759 52.7749C58.8998 53.2535 58.8994 53.2524 59.111 52.2197H59.111ZM32.4881 12.3214C29.9756 11.0455 26.0996 9.67588 23.9585 9.30741C23.2079 9.17824 21.9274 9.10619 21.1131 9.14732C19.3465 9.23652 19.4254 9.14414 22.2593 7.80524C24.6154 6.69211 26.5807 6.03753 29.2486 5.47734C32.2499 4.84717 37.8911 4.83977 40.8445 5.46214C44.0345 6.13435 47.7907 7.53219 49.9074 8.83475L50.5364 9.22188L49.0931 9.149C46.2249 9.00416 42.045 10.1629 37.5572 12.3469C36.2036 13.0056 35.026 13.5318 34.9403 13.5161C34.8546 13.5003 33.7511 12.9627 32.4881 12.3214V12.3214Z" fill="white"/>
</svg>
